<?xml version="1.0" encoding="UTF-8" standalone="no"?>
<svg xmlns="http://www.w3.org/2000/svg" version="1.1" viewBox="0 0 550 250">
   <g transform="translate(-8.464005,-176.9095)" fill="#fff">
      <polygon points="75.198,325.346 67.917,333.057 70.053,407.495 146.254,408.167 " />
      <polygon points="65.023,232.234 66.621,287.918 122.306,227.47 " />
      <path d="m 172.676,223.282 -72.259,76.643 95.689,108.681 33.808,0.293 c -3.367,-4.01 -6.055,-8.294 -7.959,-12.892 -3.125,-6.994 -4.879,-17.47 -5.279,-31.426 l -2.529,-88.088 35.141,-1.011 2.507,87.31 c 0.723,25.2 11.027,37.512 30.918,36.942 19.883,-0.572 29.465,-13.455 28.747,-38.655 l -2.507,-87.31 35.14,-1.008 2.529,88.091 c 0.35,12.186 -0.863,22.745 -3.623,31.68 -2.086,6.193 -5.493,11.94 -10.158,17.27 l 47.104,0.414 -5.847,-203.684 -201.422,16.75 z" />
      <path d="m 543.44,189.973 -68.38,8.163 c 6.07,5.658 11.077,12.525 14.907,20.732 4.327,9.15 6.629,18.466 6.901,27.939 0.496,17.287 -5.697,32.104 -18.578,44.458 12.932,4.004 23.253,11.369 30.958,22.09 7.809,10.613 11.919,23.103 12.331,37.471 0.542,18.855 -5.669,34.971 -18.618,48.366 -4.603,4.876 -9.618,8.793 -14.962,11.969 l 55.571,2.685 -0.13,-223.873 z" />
      <path d="m 453.604,275.249 c 6.177,-6.219 9.094,-15.162 8.766,-26.827 -0.326,-11.349 -3.803,-19.844 -10.425,-25.494 -6.629,-5.746 -16.085,-8.444 -28.367,-8.093 l -12.81,0.368 2.014,70.126 11.401,-0.327 c 13.536,-0.39 23.339,-3.639 29.421,-9.753 z"/>
      <path d="m 473.15,324.551 c -7.804,-6.758 -21.488,-9.852 -41.064,-9.298 l -18.431,0.528 2.094,72.941 22.492,-0.646 c 16.445,-0.473 28.438,-4.044 35.957,-10.726 7.92,-7.203 11.728,-16.173 11.419,-26.898 -0.298,-10.409 -4.454,-19.041 -12.467,-25.901 z" />
      <polygon points="34.198,407.256 29.253,235.154 23.358,235.633 28.283,407.202 " />
   </g>
</svg>